# xmcd
#
# Track frame offsets:
#	183
#	30588
#	53283
#	74508
#	97558
#	126303
#	141208
#	168808
#
# Disc length: 2461 seconds
#
# Revision: 0
# Processed by: cddbd v1.4PL0 Copyright (c) Steve Scherf et al.
# Submitted via: EasyCDDAExtractor 4.6.0.1
#
DISCID=5d099b08
DTITLE=Big Daddy - Zoom
DYEAR=1900
DGENRE=Blues
TTITLE0=Answering machine
TTITLE1=Ready for the blues
TTITLE2=Big Daddy
TTITLE3=Young man blues
TTITLE4=Welcome to Detroit
TTITLE5=Turn on your love light
TTITLE6=Meet me with your black drawers on
TTITLE7=Seven Baby blues
EXTD=
EXTT0=
EXTT1=
EXTT2=
EXTT3=
EXTT4=
EXTT5=
EXTT6=
EXTT7=
PLAYORDER=
